<svg width="24" height="24" viewBox="0 0 24 24" fill="none" xmlns="http://www.w3.org/2000/svg">
<g clip-path="url(#clip0_1_82)">
<path d="M1.17199 19.1186C0.421795 19.8686 0.00021892 20.8859 -7.62939e-06 21.9466L-7.62939e-06 23.9996H2.05299C3.11377 23.9994 4.13102 23.5778 4.88099 22.8276L18.224 9.48466L14.515 5.77567L1.17199 19.1186Z" fill="#FF93D5"/>
<path d="M23.1448 0.855152C22.9013 0.611388 22.6121 0.418008 22.2939 0.286069C21.9756 0.15413 21.6344 0.0862198 21.2898 0.0862198C20.9453 0.0862198 20.6041 0.15413 20.2858 0.286069C19.9675 0.418008 19.6783 0.611388 19.4348 0.855152L15.9288 4.36215L19.6378 8.07115L23.1448 4.56515C23.3886 4.32164 23.582 4.03247 23.7139 3.71418C23.8458 3.39589 23.9138 3.05471 23.9138 2.71015C23.9138 2.3656 23.8458 2.02442 23.7139 1.70613C23.582 1.38783 23.3886 1.09866 23.1448 0.855152V0.855152Z" fill="#FF93D5"/>
</g>
<defs>
<clipPath id="clip0_1_82">
<rect width="24" height="24" fill="white"/>
</clipPath>
</defs>
</svg>
